<svg xmlns="http://www.w3.org/2000/svg" width="900" height="600" viewBox="0 0 900 600">
<rect width="100%" height="100%" fill="#ffffff"/>
<text x="30" y="35" font-family="Arial" font-size="24" fill="#111827">Convex Hull - Upper Hull</text>
<line x1="60" y1="513.018" x2="840" y2="513.018" stroke="#9ca3af" stroke-width="2"/>
<line x1="64.2857" y1="540" x2="64.2857" y2="60" stroke="#9ca3af" stroke-width="2"/>
<text x="850" y="518.018" font-family="Arial" font-size="18" fill="#6b7280">x</text>
<text x="54.2857" y="50" font-family="Arial" font-size="18" fill="#6b7280">y</text>
<line x1="150" y1="507.018" x2="150" y2="519.018" stroke="#6b7280" stroke-width="1.5"/>
<text x="144" y="537.018" font-family="Arial" font-size="14" fill="#6b7280">1</text>
<line x1="235.714" y1="507.018" x2="235.714" y2="519.018" stroke="#6b7280" stroke-width="1.5"/>
<text x="229.714" y="537.018" font-family="Arial" font-size="14" fill="#6b7280">2</text>
<line x1="321.429" y1="507.018" x2="321.429" y2="519.018" stroke="#6b7280" stroke-width="1.5"/>
<text x="315.429" y="537.018" font-family="Arial" font-size="14" fill="#6b7280">3</text>
<line x1="407.143" y1="507.018" x2="407.143" y2="519.018" stroke="#6b7280" stroke-width="1.5"/>
<text x="401.143" y="537.018" font-family="Arial" font-size="14" fill="#6b7280">4</text>
<line x1="492.857" y1="507.018" x2="492.857" y2="519.018" stroke="#6b7280" stroke-width="1.5"/>
<text x="486.857" y="537.018" font-family="Arial" font-size="14" fill="#6b7280">5</text>
<line x1="578.571" y1="507.018" x2="578.571" y2="519.018" stroke="#6b7280" stroke-width="1.5"/>
<text x="572.571" y="537.018" font-family="Arial" font-size="14" fill="#6b7280">6</text>
<line x1="664.286" y1="507.018" x2="664.286" y2="519.018" stroke="#6b7280" stroke-width="1.5"/>
<text x="658.286" y="537.018" font-family="Arial" font-size="14" fill="#6b7280">7</text>
<line x1="750" y1="507.018" x2="750" y2="519.018" stroke="#6b7280" stroke-width="1.5"/>
<text x="744" y="537.018" font-family="Arial" font-size="14" fill="#6b7280">8</text>
<line x1="58.2857" y1="484.615" x2="70.2857" y2="484.615" stroke="#6b7280" stroke-width="1.5"/>
<text x="26.2857" y="489.615" font-family="Arial" font-size="14" fill="#6b7280">1</text>
<line x1="58.2857" y1="456.213" x2="70.2857" y2="456.213" stroke="#6b7280" stroke-width="1.5"/>
<text x="26.2857" y="461.213" font-family="Arial" font-size="14" fill="#6b7280">2</text>
<line x1="58.2857" y1="427.811" x2="70.2857" y2="427.811" stroke="#6b7280" stroke-width="1.5"/>
<text x="26.2857" y="432.811" font-family="Arial" font-size="14" fill="#6b7280">3</text>
<line x1="58.2857" y1="399.408" x2="70.2857" y2="399.408" stroke="#6b7280" stroke-width="1.5"/>
<text x="26.2857" y="404.408" font-family="Arial" font-size="14" fill="#6b7280">4</text>
<line x1="58.2857" y1="371.006" x2="70.2857" y2="371.006" stroke="#6b7280" stroke-width="1.5"/>
<text x="26.2857" y="376.006" font-family="Arial" font-size="14" fill="#6b7280">5</text>
<line x1="58.2857" y1="342.604" x2="70.2857" y2="342.604" stroke="#6b7280" stroke-width="1.5"/>
<text x="26.2857" y="347.604" font-family="Arial" font-size="14" fill="#6b7280">6</text>
<line x1="58.2857" y1="314.201" x2="70.2857" y2="314.201" stroke="#6b7280" stroke-width="1.5"/>
<text x="26.2857" y="319.201" font-family="Arial" font-size="14" fill="#6b7280">7</text>
<line x1="58.2857" y1="285.799" x2="70.2857" y2="285.799" stroke="#6b7280" stroke-width="1.5"/>
<text x="26.2857" y="290.799" font-family="Arial" font-size="14" fill="#6b7280">8</text>
<line x1="58.2857" y1="257.396" x2="70.2857" y2="257.396" stroke="#6b7280" stroke-width="1.5"/>
<text x="26.2857" y="262.396" font-family="Arial" font-size="14" fill="#6b7280">9</text>
<line x1="58.2857" y1="228.994" x2="70.2857" y2="228.994" stroke="#6b7280" stroke-width="1.5"/>
<text x="26.2857" y="233.994" font-family="Arial" font-size="14" fill="#6b7280">10</text>
<line x1="58.2857" y1="200.592" x2="70.2857" y2="200.592" stroke="#6b7280" stroke-width="1.5"/>
<text x="26.2857" y="205.592" font-family="Arial" font-size="14" fill="#6b7280">11</text>
<line x1="58.2857" y1="172.189" x2="70.2857" y2="172.189" stroke="#6b7280" stroke-width="1.5"/>
<text x="26.2857" y="177.189" font-family="Arial" font-size="14" fill="#6b7280">12</text>
<line x1="58.2857" y1="143.787" x2="70.2857" y2="143.787" stroke="#6b7280" stroke-width="1.5"/>
<text x="26.2857" y="148.787" font-family="Arial" font-size="14" fill="#6b7280">13</text>
<line x1="58.2857" y1="115.385" x2="70.2857" y2="115.385" stroke="#6b7280" stroke-width="1.5"/>
<text x="26.2857" y="120.385" font-family="Arial" font-size="14" fill="#6b7280">14</text>
<polyline fill="none" stroke="#2563eb" stroke-width="3" points="150,484.615 321.429,228.994 492.857,115.385 664.286,314.201 750,456.213"/>
<circle cx="150" cy="484.615" r="6" fill="#dc2626"/>
<text x="160" y="474.615" font-family="Arial" font-size="16" fill="#111827">p1 = (1, 1)</text>
<circle cx="235.714" cy="399.408" r="6" fill="#dc2626"/>
<text x="245.714" y="389.408" font-family="Arial" font-size="16" fill="#111827">p2 = (2, 4)</text>
<circle cx="321.429" cy="228.994" r="6" fill="#dc2626"/>
<text x="331.429" y="218.994" font-family="Arial" font-size="16" fill="#111827">p3 = (3, 10)</text>
<circle cx="407.143" cy="285.799" r="6" fill="#dc2626"/>
<text x="417.143" y="275.799" font-family="Arial" font-size="16" fill="#111827">p4 = (4, 8)</text>
<circle cx="492.857" cy="115.385" r="6" fill="#dc2626"/>
<text x="502.857" y="105.385" font-family="Arial" font-size="16" fill="#111827">p5 = (5, 14)</text>
<circle cx="578.571" cy="257.396" r="6" fill="#dc2626"/>
<text x="588.571" y="247.396" font-family="Arial" font-size="16" fill="#111827">p6 = (6, 9)</text>
<circle cx="664.286" cy="314.201" r="6" fill="#dc2626"/>
<text x="674.286" y="304.201" font-family="Arial" font-size="16" fill="#111827">p7 = (7, 7)</text>
<circle cx="750" cy="456.213" r="6" fill="#dc2626"/>
<text x="760" y="446.213" font-family="Arial" font-size="16" fill="#111827">p8 = (8, 2)</text>
</svg>
